<?xml version="1.0" encoding="utf-8"?>
<!-- Generator: Adobe Illustrator 24.1.2, SVG Export Plug-In . SVG Version: 6.00 Build 0)  -->
<svg version="1.1" id="Vrstva_1" xmlns="http://www.w3.org/2000/svg" xmlns:xlink="http://www.w3.org/1999/xlink" x="0px" y="0px"
	 viewBox="0 0 1920 1008" style="enable-background:new 0 0 1920 1008;" xml:space="preserve">
<style type="text/css">
	.st0{fill:rgba(255,255,255,0.0);}
</style>
<g>
	<path d="M852.28,463.41c3.86-1.98,7.94-3.64,11.55-6.01c17.43-11.44,34.75-23.05,52.07-34.66c4.29-2.88,8.63-5.59,14-5.57
		c3.61,0.01,7.22,0.08,10.02,3.09c1.99,2.14,3.67,4.32,2.62,7.35c-1.11,3.18-4.23,3.8-6.84,3.62c-13.67-0.94-25.18,4.97-36.68,11.03
		c-0.5,0.26-0.78,0.92-1.87,2.26c3.51,0.83,6.45,1.57,9.4,2.21c14.54,3.13,29.12,6.1,43.62,9.41c4.11,0.94,8.11,2.61,11.97,4.38
		c3.7,1.7,7.22,1.84,11.14,0.89c6.82-1.64,13.76-2.77,20.6-4.3c2.68-0.6,5.27-1.64,7.86-2.59c3.73-1.37,6.05-3.95,6.28-8.03
		c0.47-8.47,1.05-16.94,1.18-25.42c0.07-4.41,1.16-8.29,3.11-12.19c2.34-4.67,6.25-7.06,11.03-7.76
		c12.63-1.87,23.1,1.98,30.72,12.56c3.98,5.52,8.13,10.92,11.87,16.6c3.89,5.91,9.23,9.85,15.4,13.01
		c10.78,5.52,21.51,11.14,32.17,16.88c1.99,1.07,3.61,1.65,5.94,1.02c13.55-3.67,27.16-7.16,40.75-10.71
		c0.21-0.05,0.41-0.11,0.61-0.17c8.88-2.55,9.66-4.11,5.56-12.54c-2.32-4.78-5.09-9.33-7.57-14.03c-0.99-1.88-1.86-3.84-2.55-5.84
		c-2.08-6.07-0.32-8.64,6.22-9.27c7.94-0.76,10.17,0.62,12.62,8.27c2.73,8.52,4.49,17.12,3.19,26.22
		c-0.91,6.34-4.59,9.95-10.12,11.93c-6.61,2.37-13.36,4.32-20.05,6.45c-2.62,0.83-5.25,1.66-8.02,3.28c2.12,0.4,4.25,1.18,6.36,1.13
		c7.43-0.15,14.85-0.63,22.27-0.89c4.47-0.16,8.97,0.14,13.41-0.29c7.17-0.69,14.33-1.65,21.44-2.81c2.46-0.4,4.96-1.43,7.1-2.74
		c3.35-2.06,6.38-3.77,10.7-2.61c1.85,0.5,4.53-0.87,6.44-2.04c15.01-9.18,28.94-19.51,37.32-35.69c1.45-2.79,3.67-5.21,5.7-7.66
		c9.06-10.94,30.57-9.8,37.38-1.05c3.79,4.86,4.73,10.36,5.28,16.04c0.39,4.01,0,8.09,0.17,12.12c0.28,6.8,3.11,11.55,10.15,13.64
		c7.34,2.18,14.76,4.42,21.62,7.73c7.97,3.84,14.19,1.2,20.73-3.01c6.76-4.35,9.4-10.73,9.97-18.27c0.56-7.4,0.78-14.84,1.42-22.23
		c0.25-2.93,0.93-5.91,1.92-8.69c3.71-10.37,13.48-12.53,21.78-5.14c7.34,6.53,12.54,14.46,15.83,23.61
		c6.18,17.19,18.62,26.19,36.4,28.79c5.87,0.86,11.74,2.32,16.12,6.95c1.71,1.81,3.45,1.76,5.73,0.67c2.84-1.36,5.94-2.26,9.01-3.03
		c3.11-0.78,6.24-0.1,7.89,2.74c4.09,7.02,10.85,8.67,17.98,9.03c14.22,0.72,28.46,1.26,42.7,1.24c5.2-0.01,10.59-1.28,15.57-2.93
		c7.22-2.39,8.29-6.4,4.23-12.63c-5.87-9-20.12-14.75-30.38-11.44c-4.93,1.59-10.17,3.99-13.79,7.53
		c-12.25,11.96-33.78,5.09-40.38-6.85c-5.32-9.62-4.48-16.36,3.26-24.13c9.54-9.59,21.69-13.04,34.61-14.47
		c4-0.44,8.13-0.46,12.12,0c4.16,0.48,8.31,1.51,12.3,2.81c3.01,0.98,5.67,2.94,8.62,4.14c7.98,3.25,11.76,9.32,12.5,17.67
		c0.4,4.57-1.41,6.62-5.81,5.77c-2.05-0.39-4.09-1.22-5.93-2.24c-3.22-1.78-4.9-4.18-3.98-8.37c1.35-6.18,0.16-8.69-5.58-11.21
		c-3.99-1.75-8.44-2.97-12.78-3.35c-9.18-0.79-18.34-0.02-26.97,3.57c-3.9,1.62-7.77,3.54-11.22,5.94
		c-6.48,4.51-8.55,13.23-5.39,20.55c2.86,6.62,12,12.01,18.88,10.16c4.37-1.17,8.95-3.26,12.31-6.21
		c10.76-9.44,23.22-11.51,36.33-5.57c9.78,4.44,17.67,10.93,23.49,20.36c16.02-4.12,32.02-7.73,43.62-20.78
		c6.03-6.78,10.71-14.32,12.82-23.22c0.52-2.2,0.21-4.61,0.2-6.92c0-1.25-0.67-2.78-0.17-3.7c1.07-1.96,2.4-4.35,4.23-5.11
		c1.24-0.51,3.93,1.06,5.24,2.41c4.46,4.61,3.92,10.19,1.61,15.46c-4.53,10.31-11.56,18.8-20.27,25.88
		c-8.36,6.79-17.76,11.66-28.05,14.82c-1.41,0.43-2.77,1-4.37,2.56c1.82,0.56,3.6,1.35,5.46,1.64c3.98,0.63,7.99,1.31,12.01,1.44
		c17.64,0.55,35.3,1.53,52.93,1.15c14.61-0.31,29.18-2.3,43.76-3.58c0.73-0.06,1.45-0.39,2.24-1.68c-5.28-1.1-10.58-2.13-15.85-3.31
		c-12.08-2.69-24.07-5.72-34.36-13.06c-5.17-3.69-9.49-8.07-8.59-15.27c0.05-0.42,0.03-0.85,0.1-1.27c0.63-3.96,3.02-6.74,5.75-6.69
		c2.82,0.05,5.96,3.71,5.23,7.63c-1.65,8.83,3.49,12.84,10.16,16.23c7.57,3.84,15.89,4.6,24.05,5.91c6.7,1.08,13.47,1.69,20.18,2.69
		c2.08,0.31,4.11,1.11,6.07,1.92c2.9,1.19,5.27,2.99,5.09,6.57c-0.17,3.4-2.33,5.62-5.26,6.56c-4.02,1.28-8.21,2.29-12.39,2.79
		c-23.76,2.82-47.63,0.88-71.45,1.39c-6.39,0.14-12.8,0.31-19.16-0.13c-12.06-0.83-24.1-1.98-36.12-3.24
		c-2.5-0.26-4.51-0.29-6.49,1.45c-4.09,3.59-9.22,4.31-14.35,4.37c-12.99,0.14-25.99,0.16-38.98-0.03
		c-19.35-0.28-38.9,0.78-57.99-1.65c-17.12-2.18-34.78,0.37-51.41-5.78c-9.97-3.69-20.04-7.11-29.93-11.01
		c-6.82-2.69-7.37-2.72-12.9,2.37c-2.95,2.72-6.31,4.99-9.53,7.41c-1.01,0.76-2.6,1.07-3.19,2.03c-3.33,5.43-8.48,5.76-13.99,5.49
		c-5.36-0.26-10.41-0.8-14.74-4.79c-4.43-4.09-9.88-5.5-16.02-4c-3.06,0.75-6.3,0.85-9.47,1.06c-7.2,0.48-14.43,1.34-21.62,1.14
		c-16.55-0.46-33.1-1.38-49.63-2.31c-5.47-0.31-10.35,0.14-14.94,3.85c-2.46,2-6.11,3.17-9.33,3.46
		c-5.69,0.51-11.49,0.29-17.22-0.02c-11.23-0.61-22.44-2.07-33.66-2.09c-10.58-0.01-21.16,1.4-31.75,2.16
		c-1.7,0.12-3.4,0.1-5.1,0.18c-16.12,0.82-32.23,1.85-48.35,2.41c-11.92,0.41-23.85,0.24-35.78,0.25
		c-18.74,0.01-37.48,0.02-56.23-0.11c-20.3-0.14-39.56-4.89-58-13.29c-8.71-3.97-17.69-7.35-26.31-11.5
		c-6.76-3.25-13-2.21-18.82,1.43c-5.37,3.36-10.6,7.16-15.2,11.51c-10.2,9.64-22.55,10.14-35.26,8.97c-5.43-0.5-6.43-3.69-2.94-7.88
		c1.9-2.28,4.18-4.24,6.34-6.29c6.17-5.85,12.6-11.44,18.46-17.58c4.46-4.68,4.89-11.13,5.81-17.23c0.54-3.56,0.94-7.2,2.04-10.59
		c1.47-4.52,4.16-5.68,10.28-5.35c4.74,0.25,9.54,2.99,10.21,6.32c0.3,1.47-0.12,3.49-0.97,4.73c-3.49,5.07-7.16,10.02-10.97,14.85
		c-5.53,6.99-11.34,13.76-16.82,20.78c-1.6,2.04-2.5,4.63-3.72,6.97C851.52,462.61,851.9,463.01,852.28,463.41z M1105.69,467.3
		c-2.32-1.82-3.73-3.3-5.43-4.21c-8.99-4.82-18.07-9.49-27.1-14.25c-2.06-1.09-4.37-2.02-5.96-3.62
		c-9.43-9.5-18.69-19.16-27.97-28.81c-3.65-3.8-6.98-7.99-12.34-9.89c-2.93,2.61-3.37,5.85-3.21,9.32
		c0.36,8.26,0.96,16.52,0.97,24.78c0.02,8.25-3.78,14.5-11.93,16.9c-9.56,2.81-19.3,4.96-28.97,7.38c-1.98,0.5-3.99,0.9-5.98,1.34
		c7.04,1.49,13.96,2.2,20.9,2.34c10.85,0.22,21.71,0.09,32.56,0.04c2.33-0.01,4.66-0.33,6.99-0.46c4.66-0.25,9.32-0.73,13.97-0.63
		c8.27,0.19,16.54,0.7,24.8,1.15c4.44,0.24,8.88,0.56,13.31,0.98C1095.19,470.11,1099.89,469.51,1105.69,467.3z M1241.38,455.26
		c3.32,1.24,5.68,2.7,8.16,2.94c10.95,1.08,21.91,2.19,32.9,2.55c7.38,0.24,14.8-0.61,22.18-1.28c2.77-0.25,5.46-1.38,9.81-2.54
		c-8.45-5.69-8.99-13.52-10.74-20.9c-1.32-5.56-2.76-11.14-4.71-16.5c-3.31-9.09-6.23-10.22-13.87-4.53
		c-6.59,4.91-12.5,10.74-18.56,16.33c-4.97,4.58-9.68,9.44-14.56,14.11C1248.83,448.49,1245.56,451.41,1241.38,455.26z
		 M1390.68,408.99c-1,2.77-2.26,5.06-2.61,7.48c-1.14,7.75-1.89,15.55-2.89,23.32c-0.76,5.92,1.76,9.72,7.14,12.02
		c16.69,7.13,34.09,11.87,51.88,15.2c3.54,0.66,6.95-0.13,9.61-3.42c-6.58-3.12-12.84-5.72-18.73-8.98
		c-8.86-4.89-16.43-11.15-20.83-20.74c-2.11-4.6-4.82-9.04-7.92-13.04C1402.47,415.86,1398.37,410.83,1390.68,408.99z"/>
	<path d="M386.15,416.18c-4.91,10.82-10.05,21.54-14.69,32.47c-6.22,14.63-17.62,22.28-32.63,25.72
		c-9.88,2.27-19.75,2.84-29.74,1.11c-1.04-0.18-2.12-0.31-3.18-0.26c-5.58,0.29-10.46-1.46-14.87-4.8
		c-5.39-4.08-11.25-5.86-17.95-3.64c-1,0.33-2.08,0.52-3.13,0.56c-12.75,0.47-25.5,1.38-38.24,1.2
		c-12.72-0.18-25.43-1.38-38.14-2.29c-5.25-0.38-9.92,0.19-14.4,3.59c-5.37,4.08-12.06,4.75-19.22,2.96
		c2.08-4.98,6.1-8.04,10.22-10.8c6.35-4.27,12.96-8.15,19.43-12.25c12.43-7.86,22.85-17.64,29.9-30.77
		c1.49-2.78,3.65-5.22,5.67-7.69c9.02-11.02,30.74-10.23,37.79-0.84c3.8,5.06,4.67,10.81,5.05,16.77c0.3,4.66,0.23,9.35,0.56,14.01
		c0.35,4.96,3.05,8.18,7.78,9.81c9.26,3.19,18.48,6.47,27.73,9.68c3.21,1.12,6.48,2.05,9.66,3.25c7.83,2.95,15.74,4.95,24.24,3.44
		c7.03-1.25,13.13-3.97,16.62-10.5c7.7-14.45,15.2-29.02,22.75-43.55c0.26-0.51,0.16-1.21,0.3-2.56c-1.62,0.65-2.95,0.99-4.06,1.67
		c-11.64,7.11-23.39,14.21-36.7,17.57c-6.25,1.57-13.04,1.5-19.56,1.29c-4.72-0.15-7.47-3.82-7-7.5c0.44-3.46,4.33-6.18,8.69-5.87
		c1.68,0.12,3.31,0.78,4.99,1.06c2.51,0.42,5.02,0.94,7.55,1.05c11.58,0.5,21.52-4.4,31.2-9.88c5-2.83,9.79-6.01,14.75-8.9
		c2.01-1.17,4.17-2.18,6.37-2.92c4.16-1.41,6.04-0.87,7.66,3.19c1.8,4.51,2.93,9.31,4.11,14.04c2.31,9.28,4.11,18.7,6.82,27.85
		c1.49,5.03,4.16,9.77,6.75,14.39c2.03,3.62,5.95,5.2,9.81,4.99c5.47-0.29,10.96-1.21,16.3-2.49c12.62-3.03,25.16-6.41,37.72-9.69
		c10.59-2.77,11.27-4.2,6.47-13.9c-1.6-3.24-3.61-6.27-5.21-9.5c-1.79-3.61-3.61-7.25-4.92-11.05c-1.28-3.72-0.12-5.58,3.44-6.94
		c7.69-2.93,13.29-0.32,15.85,7.49c2.79,8.52,4.44,17.13,3.24,26.21c-0.8,6.03-4.08,9.74-9.41,11.77c-5.76,2.2-11.65,4.1-17.52,5.99
		c-3.63,1.17-7.35,2.08-12.17,3.43c2.37,0.78,3.79,1.65,5.21,1.64c7.65-0.06,15.29-0.32,22.93-0.53c4.68-0.13,9.37-0.06,14.02-0.51
		c7.38-0.72,14.75-1.68,22.09-2.79c2.27-0.34,4.62-1.18,6.56-2.39c3.89-2.42,7.51-4.94,12.37-2.28c0.76,0.42,2.42-0.34,3.45-0.93
		c16.18-9.36,31.22-19.94,40.32-37.04c1.58-2.97,3.86-5.59,6.03-8.2c9.03-10.86,30.53-9.78,37.38-0.92
		c3.76,4.86,4.69,10.37,5.23,16.06c0.36,3.8,0.06,7.66,0.13,11.49c0.13,7.09,2.96,12.05,10.28,14.2c6.73,1.98,13.27,4.61,19.89,6.96
		c1.8,0.64,3.68,1.16,5.37,2.02c2.68,1.37,5.23,1.3,7.99,0.27c2.38-0.88,4.88-1.54,7.39-1.99c3.14-0.55,5.98,0.26,7.79,3.09
		c3.22,5.02,7.81,7.26,13.66,8.26c11.83,2.01,23.72,2.13,35.62,1.89c6.99-0.14,14.01-0.58,20.95-1.42
		c4.88-0.59,10.62-1.82,12.02-7.03c1.47-5.48-3.07-9.55-7.1-12.6c-12.21-9.26-26.38-10.76-38.37,0.9
		c-12.77,12.43-37.94,6.49-43.74-11.85c-1.97-6.22-0.3-11.75,3.91-16.59c5.31-6.1,12-10.09,19.52-12.84
		c10.63-3.89,21.72-4.81,32.74-3.45c9.19,1.14,17.25,5.9,24.53,11.58c4.86,3.8,4.74,9.73,5.31,15.17c0.23,2.17-1.44,3.58-3.66,3.6
		c-4.48,0.02-8.53-1.53-11.17-5.13c-1.03-1.4-0.83-3.98-0.61-5.96c0.64-5.62-0.05-8.14-5.08-10.43c-4.16-1.89-8.78-3.34-13.31-3.75
		c-9.16-0.82-18.34-0.12-26.98,3.47c-3.9,1.62-7.78,3.51-11.25,5.89c-6.61,4.53-8.75,12.99-5.67,20.47
		c2.75,6.68,11.77,12.18,18.73,10.42c4.38-1.11,9.5-2.9,12.28-6.12c9.19-10.63,20.43-10.51,32.17-7.23
		c9.83,2.74,17.99,8.61,24.37,16.71c0.92,1.17,1.74,2.44,2.43,3.75c3.94,7.49,1.71,12.81-6.52,14.97c-3.26,0.85-6.7,1.34-10.06,1.38
		c-12.14,0.14-24.28,0.15-36.42-0.02c-20.2-0.28-40.4-0.79-60.61-1.09c-4.68-0.07-8.81-1.4-12.48-4.18
		c-5.93-4.48-12.25-6.76-19.66-4.09c-0.78,0.28-1.67,0.36-2.52,0.39c-12.75,0.46-25.5,1.37-38.24,1.19
		c-12.72-0.18-25.43-1.4-38.14-2.29c-5-0.35-9.4,0.34-13.91,3.18c-3.78,2.39-8.65,4.16-13.06,4.22
		c-10.17,0.13-20.35-1.17-30.53-1.47c-9.95-0.29-19.93-0.28-29.88,0c-11.25,0.31-22.49,1.08-33.74,1.63
		c-2.76,0.13-5.77-0.51-8.25,0.36c-8.44,2.98-15.18-2.71-19.02-9.05c-7.03-11.6-10.84-24.44-14.78-37.24
		c-1.18-3.83-2.25-7.69-3.38-11.53C386.97,416.3,386.56,416.24,386.15,416.18z M268.19,456.33c-7.42-4.9-8.09-12.2-9.74-19.23
		c-1.59-6.79-3.57-13.55-6.14-20.03c-2.54-6.38-5.22-7.37-10.68-3.29c-7.41,5.55-14.15,12.02-21.04,18.24
		c-4.7,4.25-9.15,8.79-13.75,13.15c-3.32,3.14-6.72,6.19-10.13,9.32C205.14,461.68,254.08,463.13,268.19,456.33z M628.37,457.86
		c-3-4.42-5.62-7.3-7.07-10.69c-1.48-3.45-1.7-7.41-2.65-11.1c-1.33-5.13-2.71-10.25-4.3-15.3c-0.69-2.2-1.79-4.31-2.95-6.32
		c-1.61-2.8-4.06-3.86-6.96-2.01c-3.73,2.38-7.64,4.66-10.87,7.63c-6.53,6.02-12.6,12.52-18.95,18.73c-2.26,2.22-4.8,4.15-7.16,6.27
		c-3.5,3.16-6.95,6.39-10.41,9.58c0.2,0.68,0.4,1.36,0.59,2.04C580.72,461.71,603.93,461.76,628.37,457.86z"/>
</g>
</svg>
